<svg width="16" height="15" viewBox="0 0 16 15" fill="none" xmlns="http://www.w3.org/2000/svg">
<path d="M15.1156 0.493724C14.8646 0.179119 14.4756 -0.000244141 14.0486 -0.000244141C13.7726 -0.000244141 13.4866 0.073611 13.1976 0.218444L0.920597 6.39257C0.0475983 6.83187 -0.0124013 7.49369 0.00159873 7.75746C0.0155987 8.02314 0.148598 8.67442 1.0646 9.02259L2.6336 9.61823C2.9316 9.73141 3.2636 9.78992 3.6226 9.78992C3.6796 9.78992 3.7336 9.78225 3.7896 9.78033C3.7686 9.80719 3.74259 9.82733 3.72259 9.85514C3.4306 10.2743 3.4156 10.8431 3.6806 11.456C3.6846 11.4665 3.6886 11.4752 3.6926 11.4838C4.15659 12.4698 4.67259 13.5824 4.73459 13.7378C4.88859 14.1225 5.28059 14.3872 5.70959 14.3872C6.37159 14.3872 6.56859 14.0812 7.65159 12.3892C7.73559 12.2655 7.92359 11.9768 7.95559 11.6104C8.08259 11.6593 8.20159 11.7054 8.30259 11.7447L10.0406 12.4238C10.3886 12.56 10.6946 12.6808 10.8546 12.7441C10.9046 12.7739 10.9566 12.7988 11.0116 12.8199C11.1346 12.8669 11.2646 12.8899 11.3956 12.8899C12.1866 12.8899 12.3756 12.2329 12.4776 11.8809C12.5276 11.7073 12.5976 11.4656 12.6716 11.1999L15.3226 1.85573C15.5246 1.15075 15.2786 0.699943 15.1156 0.493724ZM6.77659 11.8579C6.77659 11.8579 5.79259 13.3935 5.70959 13.3935C5.70759 13.3935 5.70659 13.3925 5.70459 13.3906C5.60759 13.1422 4.63659 11.0762 4.63659 11.0762C4.45759 10.6618 4.48959 10.3069 4.79759 10.3069C4.86559 10.3069 4.94659 10.3242 5.04059 10.3616L5.79559 10.7376C5.92159 10.8201 6.05959 10.892 6.21059 10.9486L6.24859 10.962L6.31959 10.9965C6.90259 11.2929 7.08759 11.4004 6.77659 11.8579ZM14.3246 1.59484L11.6746 10.939C11.5246 11.4656 11.4006 11.8962 11.3976 11.8962C11.3956 11.8953 11.3926 11.8847 11.3926 11.8838C11.3926 11.8809 10.9606 11.7111 10.4326 11.5039L8.69359 10.8249C8.16559 10.6196 7.29959 10.2877 6.76859 10.0911L6.68059 10.0575L6.35559 9.89543C6.03359 9.65851 6.00559 9.26814 6.32859 8.93723L11.7096 3.41054C11.9256 3.18897 12.0076 3.07483 11.9606 3.07483C11.9236 3.07483 11.8036 3.14868 11.6036 3.29831L4.79459 8.44997C4.49759 8.6725 4.0466 8.79623 3.6216 8.79623C3.4046 8.79623 3.1936 8.76266 3.0136 8.69456L1.4456 8.09988C0.915598 7.89845 0.895598 7.52726 1.3996 7.27212L13.6776 1.09704C13.8196 1.02606 13.9436 0.992488 14.0466 0.992488C14.3116 0.993447 14.4326 1.21501 14.3246 1.59484Z" fill="white"/>
</svg>
