<svg width="218" height="42" viewBox="0 0 218 42" fill="none" xmlns="http://www.w3.org/2000/svg">
<rect width="211" height="38" rx="19" transform="matrix(-1 0 0 1 218 0)" fill="#E3E3E5"/>
<path d="M30.5256 18.5455C30.5256 15.0938 28.5014 12.9418 25.7102 12.9418C22.919 12.9418 20.8949 15.0938 20.8949 18.5455C20.8949 21.9972 22.919 24.1491 25.7102 24.1491C28.5014 24.1491 30.5256 21.9972 30.5256 18.5455ZM29.2472 18.5455C29.2472 21.3793 27.6918 22.9134 25.7102 22.9134C23.7287 22.9134 22.1733 21.3793 22.1733 18.5455C22.1733 15.7116 23.7287 14.1776 25.7102 14.1776C27.6918 14.1776 29.2472 15.7116 29.2472 18.5455ZM38.8832 15.8182H37.6261V19.9677C37.0188 20.1435 36.3956 20.25 35.6445 20.25C34.6218 20.25 33.8335 19.6747 33.8335 18.4176V15.7969H32.5763V18.4176C32.5763 20.4205 33.7908 21.4219 35.6445 21.4219C36.4169 21.4219 37.0348 21.3207 37.6261 21.1449V24H38.8832V15.8182ZM44.62 24.1705C46.282 24.1705 47.4964 23.3395 47.88 22.1037L46.6655 21.7628C46.3459 22.6151 45.6055 23.0412 44.62 23.0412C43.1445 23.0412 42.1271 22.0877 42.0685 20.3352H48.0078V19.8026C48.0078 16.7557 46.1967 15.7116 44.4922 15.7116C42.2763 15.7116 40.8061 17.4588 40.8061 19.973C40.8061 22.4872 42.255 24.1705 44.62 24.1705ZM42.0685 19.2486C42.1538 17.9755 43.054 16.8409 44.4922 16.8409C45.8558 16.8409 46.7294 17.8636 46.7294 19.2486H42.0685ZM51.1772 15.8182H49.9201V24H51.1772V20.5057H55.0977V24H56.3548V15.8182H55.0977V19.3338H51.1772V15.8182ZM59.9077 18.7798V15.8182H58.6506V24H62.081C63.9986 24 65.0426 22.8281 65.0426 21.358C65.0426 19.8665 63.9986 18.7798 62.081 18.7798H59.9077ZM59.9077 19.9517H62.081C63.0771 19.9517 63.7855 20.5589 63.7855 21.4219C63.7855 22.2475 63.0771 22.8281 62.081 22.8281H59.9077V19.9517ZM70.6636 21.9119C70.7062 23.2543 71.99 24.1705 73.7318 24.1705C75.5216 24.1705 76.8213 23.2116 76.8213 21.7202C76.8213 20.6974 76.2087 19.8665 75.2872 19.8026V19.7173C76.0649 19.4776 76.6508 18.913 76.6508 17.9915C76.6508 16.6971 75.5429 15.7116 73.817 15.7116C72.1125 15.7116 70.898 16.6491 70.8554 17.9702H72.1764C72.2137 17.2937 72.9221 16.8196 73.8809 16.8196C74.8344 16.8196 75.3724 17.3043 75.3724 18.0341C75.3724 18.7159 74.9037 19.2273 73.9023 19.2273H72.496V20.3565H73.9023C74.9037 20.3565 75.5429 20.9052 75.5429 21.7202C75.5429 22.6523 74.7172 23.0412 73.7105 23.0412C72.7251 23.0412 72.0645 22.6523 72.0059 21.9119H70.6636ZM80.9948 24.1918C82.4223 24.1918 83.1681 23.4247 83.4237 22.892H83.4877V24H84.7448V18.6094C84.7448 16.0099 82.7632 15.7116 81.7192 15.7116C80.4834 15.7116 79.0771 16.1378 78.4379 17.6293L79.6311 18.0554C79.9081 17.4588 80.5633 16.8196 81.7618 16.8196C82.9177 16.8196 83.4877 17.4322 83.4877 18.4815V18.5241C83.4877 19.1314 82.8698 19.0781 81.3783 19.2699C79.8602 19.467 78.2036 19.8026 78.2036 21.6776C78.2036 23.2756 79.4394 24.1918 80.9948 24.1918ZM81.1865 23.0625C80.1851 23.0625 79.4607 22.6151 79.4607 21.7415C79.4607 20.7827 80.3343 20.4844 81.3144 20.3565C81.847 20.2926 83.2746 20.1435 83.4877 19.8878V21.0384C83.4877 22.0611 82.678 23.0625 81.1865 23.0625ZM93.1117 12.75C92.7122 13.0856 92.1156 13.0856 91.2793 13.0803C91.0076 13.0803 90.7093 13.0803 90.3844 13.0909C87.8915 13.1548 86.6557 15.0511 86.6557 18.6946V19.5682C86.6557 22.5938 88.1259 24.1705 90.3205 24.1705C92.5098 24.1705 93.964 22.5831 93.964 20.0156C93.964 17.4375 92.4885 16.0739 90.5762 16.0739C89.4522 16.0739 88.4029 16.5426 87.8489 17.5653H87.7424C87.9128 15.456 88.7012 14.3267 90.4057 14.2628C91.9185 14.1989 93.0051 14.2415 93.7509 13.517L93.1117 12.75ZM90.3205 23.0412C88.829 23.0412 87.9128 21.848 87.9128 20.0156C87.9395 18.2259 88.8397 17.2031 90.2992 17.2031C91.796 17.2031 92.7069 18.2259 92.7069 20.0156C92.7069 21.8587 91.8013 23.0412 90.3205 23.0412ZM98.2946 24.1918C99.7221 24.1918 100.468 23.4247 100.724 22.892H100.787V24H102.045V18.6094C102.045 16.0099 100.063 15.7116 99.019 15.7116C97.7832 15.7116 96.377 16.1378 95.7377 17.6293L96.9309 18.0554C97.2079 17.4588 97.8631 16.8196 99.0616 16.8196C100.218 16.8196 100.787 17.4322 100.787 18.4815V18.5241C100.787 19.1314 100.17 19.0781 98.6781 19.2699C97.16 19.467 95.5034 19.8026 95.5034 21.6776C95.5034 23.2756 96.7392 24.1918 98.2946 24.1918ZM98.4863 23.0625C97.4849 23.0625 96.7605 22.6151 96.7605 21.7415C96.7605 20.7827 97.6341 20.4844 98.6142 20.3565C99.1468 20.2926 100.574 20.1435 100.787 19.8878V21.0384C100.787 22.0611 99.9778 23.0625 98.4863 23.0625ZM104.339 24H108.196C109.858 24 110.859 23.0625 110.859 21.8054C110.859 20.5217 109.884 19.8292 108.984 19.696C109.905 19.5043 110.561 18.9876 110.561 17.9915C110.561 16.6864 109.442 15.8182 107.684 15.8182H104.339V24ZM105.532 22.8494V20.3352H108.196C109.059 20.3352 109.581 20.8519 109.581 21.6989C109.581 22.4126 109.059 22.8494 108.196 22.8494H105.532ZM105.532 19.2486V16.9688H107.684C108.691 16.9688 109.304 17.3896 109.304 18.0767C109.304 18.8065 108.691 19.2486 107.684 19.2486H105.532ZM114.019 15.8182H112.762V24H114.019V20.5057H117.939V24H119.197V15.8182H117.939V19.3338H114.019V15.8182ZM124.816 24.1705C127.032 24.1705 128.524 22.4872 128.524 19.9517C128.524 17.3949 127.032 15.7116 124.816 15.7116C122.6 15.7116 121.109 17.3949 121.109 19.9517C121.109 22.4872 122.6 24.1705 124.816 24.1705ZM124.816 23.0412C123.133 23.0412 122.366 21.5923 122.366 19.9517C122.366 18.3111 123.133 16.8409 124.816 16.8409C126.499 16.8409 127.267 18.3111 127.267 19.9517C127.267 21.5923 126.499 23.0412 124.816 23.0412ZM135.918 22.1463V15.8182H134.661V24H136.131L140.052 17.6719V24H141.309V15.8182H139.86L135.918 22.1463ZM144.128 27.0682C145.263 27.0682 146.062 26.4663 146.536 25.1932L150.02 15.8395L148.645 15.8182L146.387 22.3381H146.301L144.043 15.8182H142.679L145.705 24.0426L145.471 24.6818C145.012 25.9283 144.448 26.0455 143.532 25.8111L143.212 26.919C143.34 26.983 143.702 27.0682 144.128 27.0682ZM157.741 15.8182H156.483V19.9677C155.876 20.1435 155.253 20.25 154.502 20.25C153.479 20.25 152.691 19.6747 152.691 18.4176V15.7969H151.434V18.4176C151.434 20.4205 152.648 21.4219 154.502 21.4219C155.274 21.4219 155.892 21.3207 156.483 21.1449V24H157.741V15.8182ZM161.304 22.1463V15.8182H160.047V24H161.517L165.438 17.6719V24H166.695V15.8182H165.246L161.304 22.1463ZM167.884 16.9901H170.59V24H171.847V16.9901H174.532V15.8182H167.884V16.9901ZM177.623 18.7798V15.8182H176.365V24H179.796C181.713 24 182.757 22.8281 182.757 21.358C182.757 19.8665 181.713 18.7798 179.796 18.7798H177.623ZM177.623 19.9517H179.796C180.792 19.9517 181.5 20.5589 181.5 21.4219C181.5 22.2475 180.792 22.8281 179.796 22.8281H177.623V19.9517ZM187.995 24.1705C189.806 24.1705 190.999 23.0625 191.212 21.6136H189.955C189.721 22.5085 188.975 23.0412 187.995 23.0412C186.503 23.0412 185.545 21.8054 185.545 19.9091C185.545 18.0554 186.525 16.8409 187.995 16.8409C189.103 16.8409 189.763 17.5227 189.955 18.2685H191.212C190.999 16.7344 189.699 15.7116 187.974 15.7116C185.758 15.7116 184.288 17.4588 184.288 19.9517C184.288 22.402 185.694 24.1705 187.995 24.1705ZM197.972 24H199.165V15.8182H195.799C194.035 15.8182 192.965 16.7397 192.965 18.2472C192.965 19.3711 193.529 20.1701 194.515 20.5057L192.517 24H193.881L195.777 20.6761H197.972V24ZM197.972 19.5043H195.649C194.76 19.5043 194.222 19.0302 194.222 18.2472C194.222 17.4535 194.818 16.9688 195.799 16.9688H197.972V19.5043Z" fill="#434343"/>
<path d="M9.51351 29.9153C9.51351 26.0169 8.12613 19 8.12613 19L22 35.7627C14.4208 40.2921 9.1136 41.7404 0 42C3.96289 38.837 9.51351 33.8136 9.51351 29.9153Z" fill="#E2E1E6"/>
</svg>
