<svg width="260" height="63" viewBox="0 0 260 63" fill="none" xmlns="http://www.w3.org/2000/svg">
<path d="M213.242 12C215.901 12 217.401 10.3466 217.401 7.61932C217.401 4.90909 215.901 3.27273 213.362 3.27273H210.549V12H213.242ZM211.606 11.0625V4.21023H213.293C215.339 4.21023 216.379 5.50568 216.379 7.61932C216.379 9.75 215.339 11.0625 213.174 11.0625H211.606ZM221.782 12.1364C223.112 12.1364 224.083 11.4716 224.39 10.483L223.418 10.2102C223.163 10.892 222.57 11.233 221.782 11.233C220.602 11.233 219.788 10.4702 219.741 9.06818H224.492V8.64205C224.492 6.20455 223.043 5.36932 221.68 5.36932C219.907 5.36932 218.731 6.76705 218.731 8.77841C218.731 10.7898 219.89 12.1364 221.782 12.1364ZM219.741 8.19886C219.809 7.1804 220.529 6.27273 221.68 6.27273C222.771 6.27273 223.469 7.09091 223.469 8.19886H219.741ZM230.658 6.92045C230.343 5.99148 229.636 5.36932 228.34 5.36932C226.96 5.36932 225.937 6.15341 225.937 7.26136C225.937 8.16477 226.474 8.76989 227.675 9.05114L228.766 9.30682C229.427 9.46023 229.738 9.77557 229.738 10.2273C229.738 10.7898 229.141 11.25 228.204 11.25C227.381 11.25 226.866 10.8963 226.687 10.1932L225.732 10.4318C225.967 11.544 226.883 12.1364 228.221 12.1364C229.742 12.1364 230.778 11.3054 230.778 10.1761C230.778 9.2642 230.207 8.68892 229.039 8.40341L228.067 8.16477C227.292 7.97301 226.942 7.71307 226.942 7.21023C226.942 6.64773 227.539 6.23864 228.34 6.23864C229.218 6.23864 229.58 6.72443 229.755 7.17614L230.658 6.92045ZM232.292 12H233.297V5.45455H232.292V12ZM232.803 4.36364C233.195 4.36364 233.519 4.05682 233.519 3.68182C233.519 3.30682 233.195 3 232.803 3C232.411 3 232.087 3.30682 232.087 3.68182C232.087 4.05682 232.411 4.36364 232.803 4.36364ZM237.781 14.5909C239.349 14.5909 240.611 13.875 240.611 12.1875V5.45455H239.639V6.49432H239.537C239.315 6.15341 238.906 5.36932 237.628 5.36932C235.974 5.36932 234.832 6.68182 234.832 8.69318C234.832 10.7386 236.026 11.8977 237.611 11.8977C238.889 11.8977 239.298 11.1477 239.52 10.7898H239.605V12.1193C239.605 13.2102 238.838 13.7045 237.781 13.7045C236.592 13.7045 236.175 13.0781 235.906 12.7159L235.105 13.2784C235.514 13.9645 236.32 14.5909 237.781 14.5909ZM237.747 10.9943C236.486 10.9943 235.838 10.0398 235.838 8.67614C235.838 7.34659 236.469 6.27273 237.747 6.27273C238.974 6.27273 239.622 7.26136 239.622 8.67614C239.622 10.125 238.957 10.9943 237.747 10.9943ZM243.457 8.0625C243.457 6.92045 244.165 6.27273 245.128 6.27273C246.061 6.27273 246.628 6.8821 246.628 7.90909V12H247.634V7.84091C247.634 6.17045 246.743 5.36932 245.418 5.36932C244.429 5.36932 243.815 5.8125 243.509 6.47727H243.423V5.45455H242.452V12H243.457V8.0625ZM252.216 12.1364C253.545 12.1364 254.517 11.4716 254.824 10.483L253.852 10.2102C253.596 10.892 253.004 11.233 252.216 11.233C251.035 11.233 250.221 10.4702 250.174 9.06818H254.926V8.64205C254.926 6.20455 253.477 5.36932 252.113 5.36932C250.341 5.36932 249.164 6.76705 249.164 8.77841C249.164 10.7898 250.324 12.1364 252.216 12.1364ZM250.174 8.19886C250.243 7.1804 250.963 6.27273 252.113 6.27273C253.204 6.27273 253.903 7.09091 253.903 8.19886H250.174ZM256.456 12H257.461V7.85795C257.461 6.97159 258.16 6.32386 259.115 6.32386C259.383 6.32386 259.66 6.375 259.728 6.39205V5.36932C259.613 5.3608 259.349 5.35227 259.2 5.35227C258.416 5.35227 257.734 5.79545 257.495 6.44318H257.427V5.45455H256.456V12Z" fill="#808080"/>
<rect width="229" height="38" rx="19" transform="matrix(-1 0 0 1 252 21)" fill="#0975FD"/>
<path d="M43.4793 45H44.843L47.2506 36.3068H47.3358L49.7435 45H51.1072L54.0901 34.0909H52.7478L50.468 42.9759H50.3614L48.039 34.0909H46.5475L44.2251 42.9759H44.1185L41.8387 34.0909H40.4964L43.4793 45ZM56.8227 40.0781C56.8227 38.6506 57.7336 37.8409 58.9747 37.8409C60.1572 37.8409 60.871 38.5866 60.871 39.8864V45H62.1281V39.8011C62.1281 37.6971 61.0095 36.7116 59.3369 36.7116C58.0479 36.7116 57.3128 37.2496 56.9292 38.0966H56.8227V34.0909H55.5656V45H56.8227V40.0781ZM66.8356 45.1918C68.2631 45.1918 69.0089 44.4247 69.2646 43.892H69.3285V45H70.5856V39.6094C70.5856 37.0099 68.604 36.7116 67.56 36.7116C66.3242 36.7116 64.918 37.1378 64.2788 38.6293L65.4719 39.0554C65.7489 38.4588 66.4041 37.8196 67.6026 37.8196C68.7585 37.8196 69.3285 38.4322 69.3285 39.4815V39.5241C69.3285 40.1314 68.7106 40.0781 67.2191 40.2699C65.701 40.467 64.0444 40.8026 64.0444 42.6776C64.0444 44.2756 65.2802 45.1918 66.8356 45.1918ZM67.0273 44.0625C66.0259 44.0625 65.3015 43.6151 65.3015 42.7415C65.3015 41.7827 66.1751 41.4844 67.1552 41.3565C67.6879 41.2926 69.1154 41.1435 69.3285 40.8878V42.0384C69.3285 43.0611 68.5188 44.0625 67.0273 44.0625ZM76.4383 36.8182H74.6911V34.858H73.434V36.8182H72.1982V37.8835H73.434V42.9972C73.434 44.4247 74.5846 45.1065 75.6499 45.1065C76.1187 45.1065 76.417 45.0213 76.5874 44.9574L76.3318 43.8281C76.2252 43.8494 76.0548 43.892 75.7778 43.892C75.2238 43.892 74.6911 43.7216 74.6911 42.6562V37.8835H76.4383V36.8182ZM85.6375 45.1705C87.2142 45.1705 87.7469 44.1903 88.0239 43.7429H88.173V45H89.3875V34.0909H88.1304V38.1179H88.0239C87.7469 37.6918 87.2568 36.7116 85.6588 36.7116C83.5921 36.7116 82.1645 38.3523 82.1645 40.9304C82.1645 43.5298 83.5921 45.1705 85.6375 45.1705ZM85.808 44.0412C84.2313 44.0412 83.4216 42.6562 83.4216 40.9091C83.4216 39.1832 84.21 37.8409 85.808 37.8409C87.3421 37.8409 88.1517 39.0767 88.1517 40.9091C88.1517 42.7628 87.3208 44.0412 85.808 44.0412ZM95.1883 45.1705C97.4042 45.1705 98.8957 43.4872 98.8957 40.9517C98.8957 38.3949 97.4042 36.7116 95.1883 36.7116C92.9724 36.7116 91.4809 38.3949 91.4809 40.9517C91.4809 43.4872 92.9724 45.1705 95.1883 45.1705ZM95.1883 44.0412C93.5051 44.0412 92.738 42.5923 92.738 40.9517C92.738 39.3111 93.5051 37.8409 95.1883 37.8409C96.8715 37.8409 97.6386 39.3111 97.6386 40.9517C97.6386 42.5923 96.8715 44.0412 95.1883 44.0412ZM105.843 48.0682C106.978 48.0682 107.777 47.4663 108.251 46.1932L111.734 36.8395L110.36 36.8182L108.102 43.3381H108.016L105.758 36.8182H104.394L107.42 45.0426L107.185 45.6818C106.727 46.9283 106.163 47.0455 105.246 46.8111L104.927 47.919C105.055 47.983 105.417 48.0682 105.843 48.0682ZM116.429 45.1705C118.644 45.1705 120.136 43.4872 120.136 40.9517C120.136 38.3949 118.644 36.7116 116.429 36.7116C114.213 36.7116 112.721 38.3949 112.721 40.9517C112.721 43.4872 114.213 45.1705 116.429 45.1705ZM116.429 44.0412C114.745 44.0412 113.978 42.5923 113.978 40.9517C113.978 39.3111 114.745 37.8409 116.429 37.8409C118.112 37.8409 118.879 39.3111 118.879 40.9517C118.879 42.5923 118.112 44.0412 116.429 44.0412ZM127.211 41.6548C127.211 43.1889 126.039 43.892 125.102 43.892C124.058 43.892 123.312 43.125 123.312 41.9318V36.8182H122.055V42.017C122.055 44.1051 123.163 45.1065 124.697 45.1065C125.933 45.1065 126.742 44.446 127.126 43.6151H127.211V45H128.468V36.8182H127.211V41.6548ZM138.548 36.8182H136.801V34.858H135.543V36.8182H134.308V37.8835H135.543V42.9972C135.543 44.4247 136.694 45.1065 137.759 45.1065C138.228 45.1065 138.526 45.0213 138.697 44.9574L138.441 43.8281C138.335 43.8494 138.164 43.892 137.887 43.892C137.333 43.892 136.801 43.7216 136.801 42.6562V37.8835H138.548V36.8182ZM141.872 40.0781C141.872 38.6506 142.782 37.8409 144.024 37.8409C145.206 37.8409 145.92 38.5866 145.92 39.8864V45H147.177V39.8011C147.177 37.6971 146.058 36.7116 144.386 36.7116C143.097 36.7116 142.362 37.2496 141.978 38.0966H141.872V34.0909H140.614V45H141.872V40.0781ZM149.477 45H150.734V36.8182H149.477V45ZM150.116 35.4545C150.606 35.4545 151.011 35.071 151.011 34.6023C151.011 34.1335 150.606 33.75 150.116 33.75C149.626 33.75 149.221 34.1335 149.221 34.6023C149.221 35.071 149.626 35.4545 150.116 35.4545ZM154.293 40.0781C154.293 38.6506 155.178 37.8409 156.381 37.8409C157.548 37.8409 158.256 38.6026 158.256 39.8864V45H159.514V39.8011C159.514 37.7131 158.4 36.7116 156.744 36.7116C155.508 36.7116 154.741 37.2656 154.357 38.0966H154.251V36.8182H153.036V45H154.293V40.0781ZM161.811 45H163.068V41.9371L163.947 41.1222L167.01 45H168.608L164.895 40.3125L168.352 36.8182H166.797L163.217 40.4616H163.068V34.0909H161.811V45ZM177.513 45.1705C179.728 45.1705 181.22 43.4872 181.22 40.9517C181.22 38.3949 179.728 36.7116 177.513 36.7116C175.297 36.7116 173.805 38.3949 173.805 40.9517C173.805 43.4872 175.297 45.1705 177.513 45.1705ZM177.513 44.0412C175.829 44.0412 175.062 42.5923 175.062 40.9517C175.062 39.3111 175.829 37.8409 177.513 37.8409C179.196 37.8409 179.963 39.3111 179.963 40.9517C179.963 42.5923 179.196 44.0412 177.513 44.0412ZM186.782 36.8182H184.95V35.9872C184.95 35.1776 185.291 34.7514 186.122 34.7514C186.484 34.7514 186.697 34.8366 186.825 34.8793L187.187 33.7926C186.995 33.7074 186.612 33.5795 185.994 33.5795C184.822 33.5795 183.693 34.2827 183.693 35.6889V36.8182H182.372V37.8835H183.693V45H184.95V37.8835H186.782V36.8182ZM196.321 36.8182H194.574V34.858H193.317V36.8182H192.081V37.8835H193.317V42.9972C193.317 44.4247 194.467 45.1065 195.533 45.1065C196.002 45.1065 196.3 45.0213 196.47 44.9574L196.215 43.8281C196.108 43.8494 195.938 43.892 195.661 43.892C195.107 43.892 194.574 43.7216 194.574 42.6562V37.8835H196.321V36.8182ZM199.645 40.0781C199.645 38.6506 200.556 37.8409 201.797 37.8409C202.979 37.8409 203.693 38.5866 203.693 39.8864V45H204.95V39.8011C204.95 37.6971 203.832 36.7116 202.159 36.7116C200.87 36.7116 200.135 37.2496 199.752 38.0966H199.645V34.0909H198.388V45H199.645V40.0781ZM210.681 45.1705C212.343 45.1705 213.557 44.3395 213.941 43.1037L212.726 42.7628C212.406 43.6151 211.666 44.0412 210.681 44.0412C209.205 44.0412 208.188 43.0877 208.129 41.3352H214.068V40.8026C214.068 37.7557 212.257 36.7116 210.553 36.7116C208.337 36.7116 206.867 38.4588 206.867 40.973C206.867 43.4872 208.316 45.1705 210.681 45.1705ZM208.129 40.2486C208.214 38.9755 209.115 37.8409 210.553 37.8409C211.916 37.8409 212.79 38.8636 212.79 40.2486H208.129ZM221.776 38.6506C221.382 37.4893 220.498 36.7116 218.878 36.7116C217.153 36.7116 215.874 37.6918 215.874 39.0767C215.874 40.206 216.545 40.9624 218.047 41.3139L219.411 41.6335C220.237 41.8253 220.626 42.2195 220.626 42.7841C220.626 43.4872 219.88 44.0625 218.708 44.0625C217.68 44.0625 217.035 43.6204 216.812 42.7415L215.618 43.0398C215.911 44.43 217.057 45.1705 218.729 45.1705C220.631 45.1705 221.925 44.1317 221.925 42.7202C221.925 41.5803 221.211 40.8612 219.752 40.5043L218.537 40.206C217.568 39.9663 217.131 39.6413 217.131 39.0128C217.131 38.3097 217.877 37.7983 218.878 37.7983C219.976 37.7983 220.428 38.4055 220.647 38.9702L221.776 38.6506ZM227.248 45.1705C228.91 45.1705 230.124 44.3395 230.508 43.1037L229.293 42.7628C228.974 43.6151 228.233 44.0412 227.248 44.0412C225.772 44.0412 224.755 43.0877 224.696 41.3352H230.636V40.8026C230.636 37.7557 228.825 36.7116 227.12 36.7116C224.904 36.7116 223.434 38.4588 223.434 40.973C223.434 43.4872 224.883 45.1705 227.248 45.1705ZM224.696 40.2486C224.782 38.9755 225.682 37.8409 227.12 37.8409C228.484 37.8409 229.357 38.8636 229.357 40.2486H224.696ZM234.189 41.9318H235.467V41.8679C235.488 40.5469 235.829 39.9716 236.767 39.3857C237.704 38.8157 238.258 37.9954 238.258 36.8182C238.258 35.1562 237.044 33.9418 235.169 33.9418C233.443 33.9418 232.074 35.0071 231.994 36.8182H233.336C233.416 35.5611 234.295 35.0497 235.169 35.0497C236.17 35.0497 236.98 35.7102 236.98 36.7543C236.98 37.6012 236.495 38.2085 235.872 38.5866C234.828 39.2205 234.205 39.8384 234.189 41.8679V41.9318ZM234.87 45.0852C235.398 45.0852 235.829 44.6538 235.829 44.1264C235.829 43.5991 235.398 43.1676 234.87 43.1676C234.343 43.1676 233.912 43.5991 233.912 44.1264C233.912 44.6538 234.343 45.0852 234.87 45.0852Z" fill="white"/>
<path d="M40.0871 23.4292C40.0871 33.0551 32.2838 40.8584 22.658 40.8584C13.0321 40.8584 5.22876 33.0551 5.22876 23.4292C5.22876 13.8033 13.0321 6 22.658 6C32.2838 6 40.0871 13.8033 40.0871 23.4292Z" fill="#E9E9EA"/>
<path d="M14.6405 36.5011C14.6405 39.2926 12.3776 41.5556 9.58606 41.5556C6.79455 41.5556 4.53159 39.2926 4.53159 36.5011C4.53159 33.7096 6.79455 31.4466 9.58606 31.4466C12.3776 31.4466 14.6405 33.7096 14.6405 36.5011Z" fill="#E9E9EA"/>
<path d="M5.22876 42.7756C5.22876 44.2195 4.05826 45.39 2.61438 45.39C1.1705 45.39 0 44.2195 0 42.7756C0 41.3317 1.1705 40.1612 2.61438 40.1612C4.05826 40.1612 5.22876 41.3317 5.22876 42.7756Z" fill="#E9E9EA"/>
<path fill-rule="evenodd" clip-rule="evenodd" d="M16.9774 18.2056C16.6583 18.4001 16.2193 18.7372 16.0019 18.9546C15.7844 19.1721 15.4658 19.5647 15.2938 19.8274C15.1216 20.0901 14.9042 20.6351 14.8106 21.0386C14.717 21.442 14.6405 22.0467 14.6405 22.3822C14.6405 22.7177 14.7155 23.3059 14.8071 23.6894C14.8986 24.0728 15.2209 24.8728 15.523 25.4673C15.8837 26.1769 16.5966 27.0757 17.5991 28.0848C18.439 28.93 19.4006 29.8136 19.7361 30.0484C20.0716 30.2832 20.4528 30.579 20.5834 30.7057C20.7137 30.8324 21.2014 31.1292 21.6668 31.365C22.1323 31.601 22.6214 31.7939 22.7535 31.7939C22.8856 31.7939 23.4959 31.4703 24.11 31.0746C24.724 30.679 25.2655 30.3025 25.3135 30.2384C25.3614 30.1741 25.6751 29.9301 26.0106 29.696C26.3461 29.4621 27.0215 28.8707 27.5115 28.3817C28.0014 27.8928 28.7878 26.9113 29.2589 26.2011C29.73 25.4907 30.2248 24.5957 30.3585 24.2122C30.4922 23.8288 30.5982 23.029 30.5938 22.4348C30.5896 21.8408 30.4791 20.9927 30.3486 20.5502C30.2179 20.1077 29.8731 19.486 29.5822 19.1686C29.2915 18.851 28.7807 18.4249 28.4472 18.2217C27.9714 17.9316 27.5589 17.8518 26.5335 17.8518C25.5122 17.8518 25.0949 17.932 24.6255 18.2182C24.2951 18.4196 23.8031 18.8217 23.532 19.1118C23.2612 19.4018 22.9628 19.7662 22.8692 19.9213C22.717 20.1739 22.667 20.1648 22.3941 19.8356C22.2264 19.6332 21.9322 19.2702 21.7405 19.029C21.5488 18.7878 21.1174 18.4242 20.7819 18.2211C20.3043 17.932 19.8879 17.8518 18.8647 17.8518C17.858 17.8518 17.4241 17.9332 16.9774 18.2056Z" fill="#FF52CF"/>
<path d="M250.486 50.9153C250.486 47.0169 251.874 40 251.874 40L238 56.7627C245.579 61.2921 250.886 62.7404 260 63C256.037 59.837 250.486 54.8136 250.486 50.9153Z" fill="#0975FD"/>
</svg>
