<svg width="14" height="13" viewBox="0 0 14 13" fill="none" xmlns="http://www.w3.org/2000/svg">
<path d="M12.3554 9.07824C12.2904 9.03028 12.2224 8.98041 12.1594 8.93149C11.8234 8.67251 11.4664 8.43368 11.1214 8.20253C11.0494 8.15457 10.9784 8.10661 10.9064 8.05865C10.4644 7.76035 10.0664 7.61552 9.69043 7.61552C9.18442 7.61552 8.74342 7.88408 8.37942 8.41258C8.21842 8.64662 8.02242 8.76076 7.78142 8.76076C7.63842 8.76076 7.47642 8.72143 7.29942 8.6447C5.87141 8.02412 4.85241 7.07167 4.26941 5.81517C3.98741 5.20802 4.07941 4.81093 4.57441 4.48769C4.85641 4.30449 5.38041 3.96303 5.34341 3.30984C5.30141 2.56744 3.59441 0.334514 2.8744 0.0812952C2.5694 -0.026131 2.2494 -0.0270895 1.9214 0.0784184C1.0944 0.345066 0.501395 0.813137 0.205394 1.43276C-0.0806069 2.03127 -0.0676071 2.73338 0.242394 3.46426C1.1394 5.5773 2.4014 7.41889 3.99241 8.93916C5.54941 10.4268 7.46342 11.6459 9.68143 12.5619C9.88143 12.6444 10.0914 12.6895 10.2444 12.7221C10.2964 12.7336 10.3414 12.7432 10.3744 12.7518C10.3924 12.7566 10.4114 12.7595 10.4294 12.7595H10.4474C11.4904 12.7595 12.7424 11.8454 13.1274 10.8028C13.4654 9.89161 12.8494 9.4408 12.3554 9.07824Z" fill="white"/>
</svg>
