<svg width="41" height="40" viewBox="0 0 41 40" fill="none" xmlns="http://www.w3.org/2000/svg">
<path d="M-3.8147e-06 17.4292C-3.8147e-06 27.0551 7.80331 34.8584 17.4292 34.8584C27.0551 34.8584 34.8584 27.0551 34.8584 17.4292C34.8584 7.80332 27.0551 0 17.4292 0C7.80331 0 -3.8147e-06 7.80332 -3.8147e-06 17.4292Z" fill="#0975FD"/>
<path d="M25.4466 30.5011C25.4466 33.2926 27.7096 35.5556 30.5011 35.5556C33.2926 35.5556 35.5556 33.2926 35.5556 30.5011C35.5556 27.7096 33.2926 25.4466 30.5011 25.4466C27.7096 25.4466 25.4466 27.7096 25.4466 30.5011Z" fill="#0975FD"/>
<path d="M34.8584 36.7756C34.8584 38.2195 36.0289 39.39 37.4728 39.39C38.9166 39.39 40.0871 38.2195 40.0871 36.7756C40.0871 35.3317 38.9166 34.1612 37.4728 34.1612C36.0289 34.1612 34.8584 35.3317 34.8584 36.7756Z" fill="#0975FD"/>
<path d="M17.9492 10.6588C18.074 10.2325 18.4388 9.62057 18.76 9.29882C19.3057 8.75207 19.4195 8.71391 20.5029 8.71461C21.3449 8.71496 21.8147 8.80837 22.2199 9.05551C22.5268 9.24253 22.8994 9.63051 23.0478 9.91757C23.2233 10.2567 23.3177 10.9114 23.3177 11.7865C23.3177 12.5274 23.2451 13.3745 23.1562 13.6688C23.0673 13.9632 22.7389 15.0276 22.4266 16.0342C22.1143 17.0407 21.6775 18.2334 21.4561 18.6845C21.235 19.1355 20.8818 19.665 20.6715 19.8609C20.4611 20.0568 20.0881 20.2147 19.8425 20.2116C19.5971 20.2086 19.2726 20.1105 19.1217 19.9937C18.9707 19.877 18.6978 19.5521 18.5151 19.2716C18.3325 18.9912 18.1146 18.2853 18.0308 17.703C17.9469 17.1207 17.8432 15.4719 17.8004 14.039C17.7453 12.2044 17.7894 11.2047 17.9492 10.6588Z" fill="white"/>
<path d="M11.3709 12.8499C11.4744 12.7083 11.8323 12.426 12.1662 12.2224C12.5 12.019 13.0476 11.8524 13.3831 11.8524C13.7186 11.8524 14.2431 12.0049 14.5484 12.191C14.854 12.3773 15.201 12.7104 15.3197 12.9311C15.4385 13.1519 15.6116 13.6464 15.7043 14.0298C15.797 14.4133 15.8643 15.1584 15.8539 15.6856C15.8434 16.2128 15.7728 17.5069 15.697 18.5614C15.5936 19.9993 15.465 20.6552 15.1823 21.185C14.9749 21.5735 14.6009 21.9847 14.3509 22.0985C13.9987 22.259 13.8206 22.2583 13.56 22.0955C13.3749 21.98 13.0302 21.5298 12.7938 21.0949C12.5573 20.6601 12.0834 19.4654 11.7406 18.4401C11.3977 17.4147 11.1173 16.4007 11.1173 16.1867C11.1173 15.9726 11.027 15.5479 10.9167 15.2427C10.7607 14.8113 10.768 14.5121 10.9495 13.8975C11.0777 13.4628 11.2675 12.9914 11.3709 12.8499Z" fill="white"/>
<path d="M17.4115 22.9637C17.632 22.4929 18.0119 21.9993 18.2558 21.8667C18.4996 21.734 18.9578 21.6223 19.2742 21.6185C19.5903 21.6147 20.0841 21.733 20.3712 21.8815C20.6582 22.0298 21.0462 22.4024 21.2332 22.7094C21.4204 23.0161 21.5736 23.5418 21.5736 23.8773C21.5736 24.2128 21.4204 24.7385 21.2332 25.0452C21.0462 25.3522 20.6582 25.7248 20.3712 25.8731C20.0841 26.0216 19.5825 26.1431 19.2564 26.1431C18.9266 26.1431 18.4102 25.969 18.0932 25.7509C17.7219 25.4958 17.4335 25.09 17.2667 24.5893C17.0251 23.8632 17.0333 23.7713 17.4115 22.9637Z" fill="white"/>
<path d="M12.5116 25.2716C12.5116 24.7435 12.6389 24.4821 13.1391 23.9819C13.617 23.504 13.9098 23.3544 14.3679 23.3544C14.6985 23.3544 15.1851 23.4662 15.4493 23.6028C15.7136 23.7394 16.0233 24.0568 16.1378 24.3082C16.2523 24.5595 16.3461 25.0243 16.3461 25.3412C16.3461 25.6581 16.1669 26.1837 15.948 26.5095C15.5945 27.0355 15.4513 27.1075 14.6664 27.1535C13.8516 27.2012 13.7336 27.1559 13.1473 26.5696C12.6391 26.0614 12.5116 25.8013 12.5116 25.2716Z" fill="white"/>
</svg>
