<svg width="15" height="15" viewBox="0 0 15 15" fill="none" xmlns="http://www.w3.org/2000/svg">
<path d="M15 7.30724C15 11.3432 11.703 14.6142 7.636 14.6142C6.345 14.6142 5.132 14.2842 4.077 13.7052L0 15.0002L1.329 11.0802C0.658 9.97924 0.272 8.68824 0.272 7.30724C0.272 3.27224 3.569 0.000244141 7.636 0.000244141C11.704 0.000244141 15 3.27224 15 7.30724ZM7.636 1.16424C4.222 1.16424 1.445 3.92024 1.445 7.30724C1.445 8.65124 1.883 9.89624 2.624 10.9092L1.85 13.1902L4.229 12.4342C5.206 13.0762 6.378 13.4502 7.635 13.4502C11.048 13.4502 13.826 10.6942 13.826 7.30724C13.826 3.92024 11.05 1.16424 7.636 1.16424ZM11.355 8.99024C11.31 8.91524 11.189 8.87024 11.009 8.78124C10.828 8.69224 9.941 8.25824 9.776 8.19924C9.61 8.13924 9.49 8.10924 9.37 8.28824C9.25 8.46724 8.904 8.87124 8.798 8.99024C8.693 9.11024 8.588 9.12524 8.407 9.03524C8.227 8.94524 7.645 8.75624 6.956 8.14624C6.42 7.67124 6.057 7.08524 5.952 6.90624C5.847 6.72724 5.941 6.63024 6.031 6.54124C6.112 6.46124 6.212 6.33224 6.302 6.22724C6.392 6.12224 6.423 6.04824 6.482 5.92824C6.542 5.80824 6.512 5.70424 6.467 5.61424C6.422 5.52524 6.061 4.64324 5.91 4.28424C5.76 3.92624 5.609 3.98524 5.504 3.98524C5.399 3.98524 5.278 3.97024 5.158 3.97024C5.038 3.97024 4.842 4.01524 4.677 4.19424C4.512 4.37324 4.045 4.80724 4.045 5.68824C4.045 6.56924 4.692 7.42124 4.782 7.54024C4.872 7.65924 6.03 9.52725 7.865 10.2442C9.7 10.9612 9.7 10.7222 10.031 10.6922C10.362 10.6622 11.099 10.2592 11.25 9.84124C11.399 9.42324 11.399 9.06524 11.355 8.99024Z" fill="white"/>
</svg>
