<svg width="28" height="28" viewBox="0 0 28 28" fill="none" xmlns="http://www.w3.org/2000/svg">
<path d="M26.1602 19.2605C26.0226 19.159 25.8786 19.0534 25.7452 18.9498C25.0338 18.4015 24.2779 17.8958 23.5474 17.4064C23.395 17.3048 23.2447 17.2033 23.0922 17.1017C22.1564 16.4701 21.3137 16.1635 20.5176 16.1635C19.4462 16.1635 18.5125 16.7321 17.7418 17.8511C17.4009 18.3466 16.9859 18.5883 16.4756 18.5883C16.1729 18.5883 15.8298 18.505 15.4551 18.3426C12.4316 17.0286 10.274 15.012 9.03963 12.3516C8.44255 11.0661 8.63734 10.2253 9.68541 9.54089C10.2825 9.153 11.392 8.43002 11.3136 7.04701C11.2247 5.47514 7.61045 0.747333 6.08599 0.21119C5.44021 -0.016265 4.76267 -0.0182944 4.06819 0.205098C2.31717 0.769673 1.06161 1.76072 0.434882 3.07265C-0.170669 4.3399 -0.143145 5.82648 0.513221 7.37398C2.41245 11.8479 5.0845 15.7472 8.45314 18.966C11.7498 22.1159 15.8023 24.6971 20.4985 26.6365C20.922 26.8112 21.3666 26.9066 21.6906 26.9757C21.8007 27.0001 21.8959 27.0204 21.9658 27.0386C22.0039 27.0488 22.0442 27.0549 22.0823 27.0549H22.1204C24.3287 27.0549 26.9796 25.1195 27.7948 22.912C28.5104 20.9827 27.2062 20.0282 26.1602 19.2605Z" fill="black"/>
</svg>
