<svg width="41" height="40" viewBox="0 0 41 40" fill="none" xmlns="http://www.w3.org/2000/svg">
<path d="M40.0871 17.4292C40.0871 27.0551 32.2838 34.8584 22.658 34.8584C13.0321 34.8584 5.22876 27.0551 5.22876 17.4292C5.22876 7.80332 13.0321 0 22.658 0C32.2838 0 40.0871 7.80332 40.0871 17.4292Z" fill="#E9E9EA"/>
<path d="M14.6405 30.5011C14.6405 33.2926 12.3776 35.5556 9.58606 35.5556C6.79455 35.5556 4.53159 33.2926 4.53159 30.5011C4.53159 27.7096 6.79455 25.4466 9.58606 25.4466C12.3776 25.4466 14.6405 27.7096 14.6405 30.5011Z" fill="#E9E9EA"/>
<path d="M5.22876 36.7756C5.22876 38.2195 4.05826 39.39 2.61438 39.39C1.1705 39.39 0 38.2195 0 36.7756C0 35.3317 1.1705 34.1612 2.61438 34.1612C4.05826 34.1612 5.22876 35.3317 5.22876 36.7756Z" fill="#E9E9EA"/>
<path d="M18.8862 10.3544C18.9313 10.1543 19.1324 9.78183 19.3332 9.52649C19.6372 9.14009 19.8347 9.0634 20.5135 9.06811C20.9618 9.07107 21.4523 9.16919 21.6032 9.28597C21.7541 9.40275 22.0203 9.71717 22.1944 9.98471C22.3685 10.2523 22.5923 10.8013 22.6917 11.2048C22.7908 11.6082 22.8722 12.9972 22.8722 14.2913C22.8722 15.5854 22.7887 16.986 22.6868 17.4038C22.5848 17.8216 22.3474 18.3706 22.1594 18.6238C21.9344 18.9266 21.6185 19.1038 21.2377 19.1411C20.9191 19.1725 20.4858 19.1057 20.2749 18.993C20.0642 18.88 19.7249 18.4908 19.5209 18.128C19.3168 17.7651 19.1501 17.2985 19.1501 17.0911C19.1501 16.8837 19.0279 16.4778 18.8785 16.189C18.6812 15.8074 18.5027 15.6788 18.2249 15.7184C17.8906 15.766 17.8286 15.9143 17.7292 16.9057C17.6667 17.5288 17.5588 18.2573 17.4897 18.5245C17.4178 18.8025 17.153 19.1197 16.8714 19.2652C16.6003 19.4054 16.1125 19.52 15.7871 19.52C15.4416 19.52 15.084 19.3932 14.928 19.215C14.7809 19.0472 14.5202 18.6355 14.3487 18.3C14.1772 17.9645 13.9593 17.3763 13.8645 16.9928C13.7698 16.6094 13.6614 15.1437 13.6239 13.736C13.5582 11.283 13.5736 11.1406 13.9908 10.3174C14.3331 9.64169 14.5397 9.43552 14.958 9.35186C15.2506 9.29347 15.7292 9.29347 16.0219 9.35186C16.4382 9.43517 16.6463 9.64119 16.9805 10.3004C17.2151 10.7635 17.4071 11.4075 17.4071 11.7313C17.4071 12.0912 17.5377 12.4382 17.7428 12.6238C17.9274 12.7908 18.2214 12.9003 18.3964 12.867C18.6556 12.8177 18.7225 12.6137 18.7591 11.7623C18.7839 11.1882 18.841 10.5546 18.8862 10.3544Z" fill="#808080"/>
<path d="M20.1958 21.6082C20.1958 20.9539 20.2889 20.6944 20.6552 20.3281C20.9271 20.0563 21.309 19.8686 21.5901 19.8686C21.8664 19.8686 22.2504 20.0534 22.5066 20.3098C22.7492 20.5522 23.0021 21.0425 23.0687 21.3991C23.1352 21.7555 23.2278 22.7432 23.2743 23.5938C23.3296 24.6045 23.279 25.4113 23.1281 25.9228C23.0012 26.3532 22.7101 26.8926 22.4815 27.1214C22.2526 27.3503 21.9276 27.5375 21.759 27.5375C21.5903 27.5375 21.2734 27.3515 21.0547 27.1244C20.8362 26.8971 20.525 26.2892 20.3635 25.7736C20.1935 25.2307 19.968 24.836 19.8279 24.836C19.6708 24.836 19.5534 25.1115 19.4934 25.6203C19.4425 26.0516 19.2571 26.6463 19.0809 26.9418C18.9048 27.2372 18.612 27.572 18.4299 27.6856C18.169 27.8486 17.9955 27.8388 17.6097 27.6393C17.3406 27.5 17.0422 27.283 16.9465 27.1568C16.851 27.0306 16.6835 26.6137 16.5742 26.2303C16.4651 25.8468 16.3234 25.2586 16.2594 24.9231C16.1956 24.5876 16.1447 23.8033 16.1465 23.1802C16.1482 22.5571 16.2054 21.7581 16.2734 21.4047C16.3413 21.0512 16.5381 20.6341 16.7107 20.478C16.9153 20.2929 17.2555 20.2132 17.6895 20.2493C18.2209 20.2932 18.4344 20.4234 18.7523 20.8966C18.9925 21.2541 19.1501 21.7508 19.1501 22.1499C19.1501 22.5135 19.2334 22.8626 19.3353 22.9255C19.4373 22.9884 19.6726 22.9025 19.8582 22.7345C20.1012 22.5147 20.1958 22.1987 20.1958 21.6082Z" fill="#808080"/>
<path fill-rule="evenodd" clip-rule="evenodd" d="M26.8281 9.43011C26.4977 9.6316 26.0009 10.0387 25.724 10.3352C25.4472 10.6315 24.981 11.3487 24.688 11.9291C24.395 12.5093 24.0754 13.2194 23.9778 13.507C23.8802 13.7946 23.7365 14.7749 23.6585 15.6856C23.5806 16.5963 23.4951 17.6551 23.4685 18.0386L23.4202 18.7357L24.1174 18.7866C24.7222 18.8307 24.9175 18.7441 25.5919 18.133C26.306 17.4859 26.4489 17.4285 27.3475 17.4285C28.2809 17.4285 28.3687 17.4686 29.259 18.3C29.8993 18.898 30.3391 19.1715 30.6605 19.1715C30.9339 19.1715 31.3196 18.9804 31.5882 18.712C31.9331 18.3671 32.0477 18.0767 32.0477 17.5479C32.0477 17.1603 31.976 16.6024 31.8885 16.308C31.8009 16.0136 31.5589 15.263 31.3508 14.6399C31.1429 14.0168 30.8553 13.1932 30.7121 12.8098C30.5686 12.4264 30.1801 11.596 29.8484 10.9646C29.4059 10.1215 29.0673 9.71612 28.5749 9.43952C28.2061 9.23211 27.7974 9.06288 27.6667 9.06323C27.5359 9.06358 27.1586 9.22863 26.8281 9.43011ZM27.9745 14.9449C27.9168 14.7293 27.8683 14.2977 27.8671 13.9863C27.8657 13.6748 27.7909 13.4198 27.7006 13.4198C27.6104 13.4198 27.4739 13.518 27.397 13.6377C27.3203 13.7576 27.1631 14.1248 27.0477 14.4541C26.9324 14.7833 26.8775 15.1166 26.9259 15.1948C26.9742 15.2731 27.2536 15.337 27.5467 15.337C28.0144 15.337 28.0667 15.2889 27.9745 14.9449Z" fill="#808080"/>
<path fill-rule="evenodd" clip-rule="evenodd" d="M26.5573 19.8404C26.2695 20.0159 25.74 20.6547 25.3808 21.2602C25.0214 21.8655 24.7274 22.4314 24.7274 22.5177C24.7274 22.604 24.5923 22.9255 24.4271 23.2325C24.262 23.5392 24.0797 24.3784 24.0224 25.0974C23.9649 25.8163 23.8584 26.5365 23.7857 26.6977C23.6862 26.9182 23.7899 27.0617 24.2029 27.2752C24.661 27.5122 24.8006 27.5213 25.0418 27.3306C25.2009 27.2048 25.5054 26.9323 25.7186 26.7254C26.0579 26.3957 26.2422 26.3607 27.2032 26.4424C28.144 26.5222 28.3581 26.6069 28.7051 27.0366C28.9761 27.3719 29.2707 27.5375 29.5964 27.5375C29.8897 27.5375 30.2655 27.355 30.5425 27.078C30.7952 26.8253 31.0019 26.5367 31.0019 26.4368C31.0019 26.3368 30.9306 26.0142 30.8433 25.7198C30.7561 25.4254 30.5951 24.8708 30.4853 24.4874C30.3755 24.1039 30.14 23.4373 29.9621 23.0059C29.7839 22.5745 29.5506 21.9837 29.4432 21.6931C29.3358 21.4024 29.0741 20.9621 28.8614 20.7146C28.6486 20.4673 28.2002 20.0975 27.8646 19.893C27.5291 19.6886 27.2154 19.5213 27.1675 19.5213C27.1195 19.5213 26.8449 19.6649 26.5573 19.8404ZM27.4558 24.5351C27.6238 24.3673 27.671 24.1226 27.5945 23.8174C27.5305 23.5627 27.4111 23.3545 27.329 23.3545C27.247 23.3545 27.0986 23.5061 26.9993 23.6915C26.9001 23.877 26.8189 24.147 26.8189 24.2913C26.8189 24.4358 26.9048 24.6071 27.0099 24.6719C27.115 24.7369 27.3156 24.6754 27.4558 24.5351Z" fill="#808080"/>
</svg>
