<svg width="161" height="49" viewBox="0 0 161 49" fill="none" xmlns="http://www.w3.org/2000/svg">
<rect y="0.865234" width="161" height="49" fill="url(#pattern0)"/>
<path d="M47.3175 23.4007H49.6797C49.8671 23.4007 49.9796 23.3634 50.0921 23.3261C50.1671 23.2516 50.2421 23.1771 50.2796 23.028L51.067 20.4569H55.7162L56.5036 23.0653C56.5411 23.2143 56.6161 23.2889 56.7286 23.3261C56.8411 23.3634 56.9535 23.3634 57.1035 23.3634H59.5031C59.6531 23.3634 59.7281 23.3261 59.7656 23.2143C59.8031 23.1398 59.8031 23.028 59.7656 22.9535L55.5288 10.3588C55.4538 10.098 55.3788 9.91169 55.2663 9.76264C55.1913 9.61359 55.0788 9.5018 54.9664 9.42728C54.8539 9.35275 54.7039 9.27823 54.5539 9.27823C54.4039 9.24097 54.179 9.24097 53.954 9.24097H52.7542C52.5667 9.24097 52.3793 9.24097 52.2293 9.27823C52.0793 9.31549 51.9293 9.35275 51.8168 9.46454C51.7044 9.53907 51.5919 9.65085 51.5169 9.7999C51.4419 9.94895 51.3669 10.1353 51.2919 10.3588L47.0926 22.9535C47.0551 23.0653 47.0551 23.1398 47.0926 23.2516C47.0926 23.3261 47.1676 23.4007 47.3175 23.4007ZM52.5667 15.4265L53.3166 12.5573H53.4291L54.179 15.4265L54.9664 17.9976H51.7793L52.5667 15.4265Z"/>
<path d="M62.0154 23.4008H64.19C64.3775 23.4008 64.5275 23.3636 64.565 23.3263C64.6025 23.289 64.64 23.1772 64.64 22.9909V17.6624H66.5897C67.1896 17.6624 67.677 17.7742 68.0144 18.035C68.3519 18.2959 68.6143 18.743 68.8018 19.4137L69.7017 22.9909C69.7767 23.1772 69.8891 23.3263 70.0391 23.3263C70.1891 23.3636 70.3391 23.3636 70.4891 23.3636H72.6262C72.7762 23.3636 72.8887 23.289 72.9262 23.1772C72.9637 23.0655 72.9637 22.9537 72.9262 22.8791L71.9138 18.8548C71.8014 18.3704 71.6514 17.9605 71.4639 17.5879C71.2764 17.2153 70.939 16.9172 70.4891 16.7309L70.4516 16.6191C71.0515 16.2837 71.5389 15.8366 71.8388 15.2404C72.1763 14.6442 72.3263 14.0107 72.3263 13.3027C72.3263 12.0358 71.9138 11.067 71.1265 10.3217C70.3391 9.57648 69.1768 9.20386 67.7145 9.20386H62.7652C62.2778 9.20386 61.9404 9.31564 61.7904 9.50196C61.6404 9.72553 61.5654 10.0236 61.5654 10.4335V22.8791C61.5654 23.0282 61.6029 23.14 61.6779 23.2145C61.7154 23.3636 61.8279 23.4008 62.0154 23.4008ZM64.64 11.9985H67.377C67.7145 11.9985 68.0144 12.0358 68.2394 12.1476C68.4644 12.2594 68.6518 12.3712 68.7643 12.5202C68.8768 12.6693 68.9893 12.8556 69.0268 13.0419C69.0643 13.2282 69.1018 13.4145 69.1018 13.6008C69.1018 14.0852 68.9518 14.4578 68.6518 14.7932C68.3519 15.0913 67.902 15.2404 67.302 15.2404H64.6025V11.9985H64.64Z" fill="#807F7E"/>
<path d="M74.1635 11.924H77.7629V22.9537C77.7629 23.1027 77.8004 23.2145 77.8754 23.289C77.9504 23.3636 78.0629 23.3636 78.2129 23.3636H80.3875C80.575 23.3636 80.725 23.3263 80.8 23.289C80.875 23.2518 80.875 23.1027 80.875 22.9537V11.924H84.5494C84.8119 11.924 84.9618 11.775 84.9618 11.5142V9.72556C84.9618 9.53925 84.9243 9.42746 84.8869 9.3902C84.8494 9.35294 84.7369 9.31567 84.5494 9.31567H74.201C74.051 9.31567 73.9385 9.35294 73.901 9.3902C73.8636 9.42746 73.8261 9.57651 73.8261 9.72556V11.5142C73.7886 11.775 73.9385 11.924 74.1635 11.924Z" fill="#807F7E"/>
<path d="M55.0788 26.9779C54.2539 26.6053 53.2416 26.4189 52.0793 26.4189H48.2923C47.8049 26.4189 47.4675 26.5307 47.3175 26.717C47.1675 26.9034 47.0925 27.2387 47.0925 27.6486V39.2745C47.0925 39.7216 47.1675 40.0197 47.3175 40.206C47.4675 40.3923 47.8049 40.5041 48.2923 40.5041H52.3042C53.504 40.5041 54.4789 40.3178 55.3038 39.9079C56.0912 39.498 56.766 38.9764 57.2535 38.3429C57.7409 37.6722 58.0783 36.9269 58.2658 36.0699C58.4533 35.2129 58.5658 34.3186 58.5658 33.387C58.5658 32.4554 58.4533 31.5611 58.2283 30.7041C58.0034 29.8471 57.6284 29.1018 57.1035 28.4684C56.5786 27.8349 55.9037 27.3505 55.0788 26.9779ZM55.1913 35.1756C55.0788 35.7345 54.8913 36.1817 54.6289 36.5543C54.3664 36.9269 53.9915 37.2623 53.5415 37.4859C53.0916 37.7094 52.4917 37.8212 51.7793 37.8212H50.1296V29.0646H51.7043C52.4167 29.0646 53.0166 29.1764 53.504 29.3999C53.9915 29.6235 54.3664 29.9216 54.6289 30.2942C54.8913 30.6669 55.0788 31.114 55.1913 31.6357C55.3038 32.1573 55.3413 32.7163 55.3413 33.3497C55.3413 34.0205 55.3038 34.6167 55.1913 35.1756Z" fill="#807F7E"/>
<path d="M61.9024 39.3116C62.2024 39.647 62.5773 39.9451 63.0273 40.1687C63.5147 40.3922 64.1146 40.504 64.8645 40.504H70.8635C71.0135 40.504 71.126 40.4668 71.201 40.3922C71.2385 40.3177 71.276 40.2059 71.276 40.0569V38.3428C71.276 38.1565 71.2385 38.0074 71.201 37.9329C71.1635 37.8584 71.051 37.8584 70.8635 37.8584H65.5019C65.0519 37.8584 64.752 37.7839 64.527 37.5976C64.3021 37.4485 64.1896 37.1131 64.1896 36.6287V34.3185H70.0012C70.1512 34.3185 70.2636 34.2812 70.3011 34.2067C70.3386 34.1322 70.3761 34.0204 70.3761 33.8713V32.3063C70.3761 32.12 70.3386 32.0082 70.3011 31.9337C70.2636 31.8592 70.1512 31.8219 70.0012 31.8219H64.1896V30.2569C64.1896 29.9215 64.2646 29.6234 64.452 29.3626C64.6395 29.139 64.977 28.99 65.5019 28.99H70.6386C70.7886 28.99 70.901 28.9527 70.9385 28.9154C70.976 28.8409 71.0135 28.7291 71.0135 28.5801V26.866C71.0135 26.6797 70.976 26.5679 70.9385 26.4934C70.901 26.4189 70.7886 26.3816 70.6386 26.3816H64.902C64.2271 26.3816 63.6272 26.4934 63.1772 26.6797C62.6898 26.9033 62.3149 27.1641 62.0524 27.4995C61.7525 27.8348 61.565 28.2447 61.415 28.6919C61.265 29.139 61.2275 29.5862 61.2275 30.0706V36.7405C61.2275 37.1877 61.265 37.6348 61.3775 38.082C61.415 38.6036 61.64 38.9763 61.9024 39.3116Z" fill="#807F7E"/>
<path d="M74.0507 40.5042H76.1129C76.3004 40.5042 76.4129 40.4669 76.4878 40.4297C76.5628 40.3924 76.6003 40.2806 76.6003 40.0943V32.6418H76.7128L77.9501 35.362L79.2249 37.9703C79.3749 38.3057 79.5249 38.5665 79.6748 38.6783C79.7873 38.7901 80.0498 38.8646 80.3872 38.8646H81.5121C81.812 38.8646 82.037 38.7901 82.2245 38.6783C82.4119 38.5665 82.5244 38.3057 82.6744 37.9703L84.3616 34.2814L85.1865 32.4182H85.299V40.1316C85.299 40.3179 85.3365 40.4297 85.4115 40.4669C85.4864 40.5042 85.5989 40.5414 85.7489 40.5414H87.7736C87.9611 40.5414 88.0735 40.5042 88.1485 40.4669C88.2235 40.4297 88.261 40.3179 88.261 40.1316V27.7232C88.261 27.2015 88.1485 26.8662 87.9236 26.6798C87.6986 26.4935 87.3986 26.419 86.9487 26.419H85.9739C85.5239 26.419 85.224 26.4935 85.0365 26.6426C84.849 26.7916 84.6616 27.0525 84.5116 27.3878L82.4494 31.9711L81.0621 35.1011H80.9871L79.7123 32.2319L77.5002 27.3133C77.3502 26.9779 77.1627 26.7171 76.9753 26.5681C76.7878 26.419 76.5253 26.3445 76.1504 26.3445H74.9881C74.5007 26.3445 74.1632 26.4563 73.9757 26.6798C73.7883 26.9034 73.6758 27.2388 73.6758 27.7605V40.057C73.6758 40.2433 73.7133 40.3551 73.7883 40.3924C73.7883 40.4669 73.9007 40.5042 74.0507 40.5042Z" fill="#807F7E"/>
<path d="M91.898 39.3116C92.198 39.647 92.5729 39.9451 93.0229 40.1687C93.5103 40.3922 94.1102 40.504 94.8601 40.504H100.859C101.009 40.504 101.122 40.4668 101.197 40.3922C101.234 40.3177 101.272 40.2059 101.272 40.0569V38.3428C101.272 38.1565 101.234 38.0074 101.197 37.9329C101.159 37.8584 101.047 37.8584 100.859 37.8584H95.535C95.0851 37.8584 94.7851 37.7839 94.5601 37.5976C94.3352 37.4485 94.2227 37.1131 94.2227 36.6287V34.3185H100.034C100.184 34.3185 100.297 34.2812 100.334 34.2067C100.372 34.1322 100.409 34.0204 100.409 33.8713V32.3063C100.409 32.12 100.372 32.0082 100.334 31.9337C100.297 31.8592 100.184 31.8219 100.034 31.8219H94.2227V30.2569C94.2227 29.9215 94.2977 29.6234 94.4851 29.3626C94.6726 29.139 95.0101 28.99 95.535 28.99H100.672C100.822 28.99 100.934 28.9527 100.972 28.9154C101.009 28.8409 101.047 28.7291 101.047 28.5801V26.866C101.047 26.6797 101.009 26.5679 100.972 26.4934C100.934 26.4189 100.822 26.3816 100.672 26.3816H94.8976C94.2227 26.3816 93.6228 26.4934 93.1728 26.6797C92.6854 26.9033 92.3105 27.1641 92.048 27.4995C91.7481 27.8348 91.5606 28.2447 91.4106 28.6919C91.2606 29.139 91.2231 29.5862 91.2231 30.0706V36.7405C91.2231 37.1877 91.2606 37.6348 91.3731 38.082C91.4481 38.6036 91.6356 38.9763 91.898 39.3116Z" fill="#807F7E"/>
<path d="M104.046 40.5042H106.183C106.371 40.5042 106.483 40.4669 106.558 40.4297C106.633 40.3924 106.633 40.2433 106.633 40.0943V31.7848H106.746L108.695 34.7658L111.92 39.6471C112.032 39.8335 112.145 39.9825 112.257 40.0943C112.37 40.2061 112.445 40.3179 112.557 40.3551C112.67 40.4297 112.782 40.4669 112.932 40.5042C113.082 40.5414 113.232 40.5414 113.457 40.5414H114.32C114.844 40.5414 115.182 40.4297 115.369 40.1688C115.557 39.908 115.632 39.5726 115.632 39.1627V26.8662C115.632 26.5681 115.482 26.4563 115.182 26.4563H113.045C112.857 26.4563 112.745 26.4935 112.67 26.5308C112.595 26.6053 112.595 26.7171 112.595 26.8662V35.2129H112.482L110.758 32.4928L107.308 27.276C107.196 27.0897 107.083 26.9407 106.971 26.8289C106.896 26.7171 106.783 26.6053 106.671 26.5308C106.558 26.4563 106.446 26.419 106.296 26.3817C106.146 26.3445 105.996 26.3445 105.771 26.3445H104.908C104.421 26.3445 104.084 26.4563 103.896 26.6426C103.709 26.8662 103.596 27.2015 103.596 27.7232V40.057C103.596 40.2061 103.634 40.3179 103.709 40.3924C103.746 40.4669 103.859 40.5042 104.046 40.5042Z" fill="#807F7E"/>
<path d="M117.731 29.0273H121.331V40.057C121.331 40.206 121.368 40.3178 121.443 40.3923C121.518 40.4669 121.631 40.4669 121.781 40.4669H123.955C124.143 40.4669 124.293 40.4296 124.368 40.3923C124.443 40.3551 124.443 40.206 124.443 40.057V29.0273H128.117C128.38 29.0273 128.53 28.8783 128.53 28.6174V26.8288C128.53 26.6425 128.492 26.5307 128.455 26.4935C128.417 26.4562 128.305 26.4189 128.117 26.4189H117.769C117.619 26.4189 117.506 26.4562 117.469 26.4935C117.431 26.5307 117.394 26.6798 117.394 26.8288V28.6174C117.356 28.9155 117.469 29.0273 117.731 29.0273Z" fill="#807F7E"/>
<path d="M130.967 40.5041H133.104C133.292 40.5041 133.442 40.4669 133.517 40.4296C133.592 40.3923 133.592 40.2433 133.592 40.0942V26.8288C133.592 26.6425 133.554 26.5307 133.517 26.4935C133.442 26.4562 133.329 26.4189 133.104 26.4189H130.967C130.817 26.4189 130.667 26.4562 130.63 26.4935C130.555 26.568 130.517 26.6798 130.517 26.8288V40.057C130.517 40.206 130.555 40.3178 130.63 40.3923C130.667 40.4669 130.817 40.5041 130.967 40.5041Z" fill="#807F7E"/>
<path d="M137.641 39.3116C137.941 39.647 138.316 39.9451 138.766 40.1687C139.253 40.3922 139.853 40.504 140.603 40.504H146.602C146.752 40.504 146.864 40.4668 146.939 40.3922C146.977 40.3177 147.014 40.2059 147.014 40.0569V38.3428C147.014 38.1565 146.977 38.0074 146.939 37.9329C146.902 37.8584 146.789 37.8584 146.602 37.8584H141.278C140.828 37.8584 140.528 37.7839 140.303 37.5976C140.078 37.4485 139.965 37.1131 139.965 36.6287V34.3185H145.777C145.927 34.3185 146.04 34.2812 146.077 34.2067C146.115 34.1322 146.152 34.0204 146.152 33.8713V32.3063C146.152 32.12 146.115 32.0082 146.077 31.9337C146.04 31.8592 145.927 31.8219 145.777 31.8219H139.965V30.2569C139.965 29.9215 140.04 29.6234 140.228 29.3626C140.415 29.139 140.753 28.99 141.278 28.99H146.414C146.564 28.99 146.677 28.9527 146.714 28.9154C146.752 28.8409 146.789 28.7291 146.789 28.5801V26.866C146.789 26.6797 146.752 26.5679 146.714 26.4934C146.677 26.4189 146.564 26.3816 146.414 26.3816H140.603C139.928 26.3816 139.328 26.4934 138.878 26.6797C138.391 26.9033 138.016 27.1641 137.753 27.4995C137.453 27.8348 137.266 28.2447 137.116 28.6919C136.966 29.139 136.928 29.5862 136.928 30.0706V36.7405C136.928 37.1877 136.966 37.6348 137.078 38.082C137.153 38.6036 137.341 38.9763 137.641 39.3116Z" fill="#807F7E"/>
<path d="M152.639 39.9824C152.714 40.1315 152.826 40.2433 152.939 40.3178C153.051 40.3923 153.201 40.4669 153.351 40.4669C153.501 40.5041 153.688 40.5041 153.876 40.5041H155.113C155.301 40.5041 155.451 40.5041 155.601 40.4669C155.751 40.4296 155.863 40.3923 156.013 40.3178C156.126 40.2433 156.238 40.1315 156.313 40.0197C156.388 39.8707 156.5 39.6843 156.575 39.4608L160.925 26.7543C160.962 26.6798 160.962 26.6053 160.925 26.5307C160.887 26.4562 160.812 26.4189 160.7 26.4189H158.225C158.075 26.4189 157.963 26.4189 157.888 26.4562C157.813 26.4935 157.738 26.568 157.7 26.717L155.526 33.6478L154.588 37.1505H154.438L153.388 33.5733L151.251 26.7543C151.214 26.6425 151.139 26.5307 151.101 26.4935C151.026 26.4189 150.914 26.4189 150.726 26.4189H148.289C148.177 26.4189 148.102 26.4562 148.064 26.5307C148.027 26.6053 148.027 26.6798 148.064 26.7543L152.376 39.4235C152.451 39.6471 152.526 39.8334 152.639 39.9824Z" fill="#807F7E"/>
<path d="M156.613 8.71939C159.05 8.71939 161 6.78175 161 4.3597C161 1.93764 159.05 0 156.613 0C154.176 0 152.226 1.93764 152.226 4.3597C152.226 6.74449 154.213 8.71939 156.613 8.71939ZM154.888 2.273C154.888 2.12395 154.926 2.01217 154.963 1.93764C155.038 1.86312 155.151 1.82586 155.301 1.82586H157.063C157.588 1.82586 158 1.9749 158.263 2.23574C158.563 2.49658 158.675 2.83194 158.675 3.27909C158.675 3.50266 158.6 3.7635 158.488 3.94981C158.375 4.17338 158.225 4.32243 158 4.43422V4.47148C158.15 4.54601 158.263 4.65779 158.338 4.76958C158.413 4.88137 158.45 5.03042 158.488 5.21673L158.863 6.6327C158.863 6.66996 158.863 6.70722 158.863 6.74449C158.863 6.78175 158.825 6.81901 158.75 6.81901H158C157.963 6.81901 157.888 6.81901 157.85 6.81901C157.775 6.81901 157.738 6.78175 157.738 6.70722L157.438 5.4403C157.363 5.21673 157.288 5.03042 157.175 4.95589C157.063 4.88137 156.875 4.80684 156.688 4.80684H155.975V6.66996C155.975 6.74449 155.975 6.78175 155.938 6.78175C155.901 6.78175 155.863 6.81901 155.788 6.81901H155.038C154.963 6.81901 154.926 6.81901 154.926 6.78175C154.888 6.74449 154.888 6.70722 154.888 6.66996V2.273Z" fill="#807F7E"/>
<path d="M157.4 3.7635C157.513 3.65171 157.55 3.50266 157.55 3.35361C157.55 3.27909 157.55 3.24183 157.513 3.1673C157.513 3.09278 157.475 3.05551 157.4 2.98099C157.363 2.90646 157.288 2.8692 157.213 2.83194C157.138 2.79468 157.025 2.79468 156.913 2.79468H155.938V3.94981H156.875C157.138 3.91255 157.288 3.87529 157.4 3.7635Z" fill="#807F7E"/>
<path d="M34.5692 26.3072L35.1316 23.7361C35.1691 23.5125 36.294 18.2585 36.4439 15.9855C36.7064 13.079 36.069 9.20374 32.0196 7.37789C31.8696 6.52085 31.3447 4.3969 29.1701 3.24177C28.7201 2.98093 28.2702 2.72009 27.8203 2.42199C25.9456 1.26686 24.0709 0.0372032 19.0841 0.0372032C19.0466 0.0372032 19.0091 0.0744656 18.9716 0.0744656C18.9342 0.0744656 18.8967 0.0372032 18.8592 0.0372032C13.8349 -5.91204e-05 11.9227 1.2296 10.0855 2.38473C9.63559 2.68283 9.22316 2.94367 8.73573 3.2045C6.56107 4.35964 6.03615 6.48359 5.88618 7.34062C1.79931 9.241 1.2369 13.079 1.46186 16.0228C1.64934 18.2585 2.73667 23.5125 2.77416 23.7733L3.33657 26.3444C2.13676 25.4501 1.2369 25.152 0.636993 25.4874C-0.150385 25.9345 0.037086 27.1642 0.037086 27.3132V27.3505C0.0745802 27.5741 1.42437 33.0516 2.24924 34.9893C2.99913 36.7779 4.94882 37.2623 5.66121 37.3741L6.93601 43.1125C6.97351 43.2615 7.0485 43.3733 7.19847 43.4851L14.8098 48.8881C14.9223 48.9627 15.0348 48.9999 15.1847 48.9999H18.8967C18.9342 48.9999 18.9716 48.9627 19.0091 48.9627C19.0466 48.9627 19.0841 48.9999 19.1216 48.9999H22.8335C22.9835 48.9999 23.096 48.9627 23.2085 48.8881L30.7448 43.4851C30.8948 43.4106 30.9698 43.2615 31.0073 43.1125L32.2446 37.2996C32.957 37.1505 34.9067 36.6661 35.6566 34.9148C36.4814 32.9771 37.7937 27.5368 37.8687 27.276V27.2387C37.9062 27.0897 38.0562 25.86 37.2688 25.4129C36.6689 25.0775 35.769 25.3756 34.5692 26.3072ZM2.69917 15.911C2.39922 12.1102 3.74901 9.57637 6.71105 8.34671C6.93601 8.27218 7.08599 8.04861 7.08599 7.82504C7.08599 7.71325 7.23597 5.44024 9.37314 4.28511C9.89805 4.02428 10.348 3.72618 10.7979 3.42808C12.5601 2.27294 14.2099 1.2296 18.8592 1.2296C18.8967 1.2296 18.9342 1.19234 18.9716 1.19234C19.0091 1.19234 19.0466 1.2296 19.0841 1.2296C23.7334 1.2296 25.3831 2.31021 27.1454 3.42808C27.5953 3.72618 28.0452 4.02428 28.5702 4.28511C30.6698 5.44024 30.8198 7.71325 30.8573 7.82504C30.8573 8.08587 31.0073 8.27218 31.2322 8.34671C34.1943 9.57637 35.5441 12.1102 35.2441 15.911C35.0941 18.1094 33.9693 23.438 33.9318 23.4752L31.7947 33.5733L32.957 20.1216V20.0844C32.957 19.9726 32.9195 17.5878 31.7947 15.0912C30.2949 11.7748 27.5953 9.94899 24.0334 9.8372H19.0841C19.0466 9.8372 19.0091 9.87446 18.9342 9.87446C18.8967 9.8372 18.8592 9.8372 18.7842 9.8372H13.9099C10.3105 9.94899 7.6484 11.7748 6.14864 15.0912C5.02381 17.5878 4.98632 19.9726 4.98632 20.0844V20.1216L6.14864 33.5733L4.01147 23.4752C3.97397 23.438 2.84915 18.0722 2.69917 15.911ZM2.92414 34.6539C2.17425 32.8281 0.861958 27.4996 0.786969 27.1642C0.749475 26.8661 0.749475 26.1954 1.01193 26.0836C1.16191 26.0091 1.68683 25.86 3.41156 27.276C3.44906 27.3132 3.48655 27.3132 3.56154 27.3132L5.51124 36.517C4.76135 36.368 3.41156 35.8463 2.92414 34.6539ZM29.8824 42.6281L22.5711 47.7703H19.0466C19.0091 47.7703 18.9716 47.8075 18.9342 47.8075C18.8967 47.8075 18.8592 47.7703 18.8217 47.7703H15.2972L7.98585 42.6281C7.98585 42.6281 7.27346 38.8646 7.27346 38.7901L5.62372 20.0844C5.62372 19.8608 5.7362 17.5878 6.74854 15.352C8.17332 12.2593 10.573 10.657 13.8724 10.5452H18.7842C18.8217 10.5452 18.8592 10.5079 18.9342 10.5079C18.9716 10.5452 19.0091 10.5452 19.0841 10.5452H23.9959C27.3328 10.657 29.695 12.2965 31.1198 15.3893C32.1321 17.625 32.2446 19.898 32.2446 20.1216L30.5948 38.8273C30.5948 38.8646 29.8824 42.6281 29.8824 42.6281ZM37.1188 27.1269C37.0438 27.4623 35.7315 32.7908 34.9817 34.6167C34.4567 35.8463 33.1444 36.2935 32.4321 36.517L34.3817 27.3132C34.4192 27.3132 34.4942 27.3132 34.5317 27.276C36.219 25.8973 36.7814 26.0091 36.9314 26.0836C37.1563 26.2326 37.1563 26.8661 37.1188 27.1269Z" fill="#807F7E"/>
</svg>
