<svg width="212" height="75" viewBox="0 0 212 75" fill="none" xmlns="http://www.w3.org/2000/svg">
<path d="M40.0871 41.4292C40.0871 51.0551 32.2838 58.8584 22.658 58.8584C13.0321 58.8584 5.22876 51.0551 5.22876 41.4292C5.22876 31.8033 13.0321 24 22.658 24C32.2838 24 40.0871 31.8033 40.0871 41.4292Z" fill="#FF52CF"/>
<path d="M14.6405 54.5011C14.6405 57.2926 12.3776 59.5556 9.58606 59.5556C6.79455 59.5556 4.53159 57.2926 4.53159 54.5011C4.53159 51.7096 6.79455 49.4466 9.58606 49.4466C12.3776 49.4466 14.6405 51.7096 14.6405 54.5011Z" fill="#FF52CF"/>
<path d="M5.22876 60.7756C5.22876 62.2195 4.05826 63.39 2.61438 63.39C1.1705 63.39 0 62.2195 0 60.7756C0 59.3317 1.1705 58.1612 2.61438 58.1612C4.05826 58.1612 5.22876 59.3317 5.22876 60.7756Z" fill="#FF52CF"/>
<path d="M21 41.4292C21 51.0551 28.8033 58.8584 38.4292 58.8584C48.0551 58.8584 55.8584 51.0551 55.8584 41.4292C55.8584 31.8033 48.0551 24 38.4292 24C28.8033 24 21 31.8033 21 41.4292Z" fill="#0975FD"/>
<path d="M46.4466 54.5011C46.4466 57.2926 48.7096 59.5556 51.5011 59.5556C54.2926 59.5556 56.5556 57.2926 56.5556 54.5011C56.5556 51.7096 54.2926 49.4466 51.5011 49.4466C48.7096 49.4466 46.4466 51.7096 46.4466 54.5011Z" fill="#0975FD"/>
<path d="M55.8584 60.7756C55.8584 62.2195 57.0289 63.39 58.4728 63.39C59.9167 63.39 61.0872 62.2195 61.0872 60.7756C61.0872 59.3317 59.9167 58.1612 58.4728 58.1612C57.0289 58.1612 55.8584 59.3317 55.8584 60.7756Z" fill="#0975FD"/>
<path fill-rule="evenodd" clip-rule="evenodd" d="M30.2226 33.4822C29.7825 33.7472 29.1771 34.2066 28.8774 34.5028C28.5774 34.7992 28.1381 35.3344 27.9008 35.6923C27.6634 36.0502 27.3637 36.793 27.2346 37.3428C27.1055 37.8927 27 38.7167 27 39.1739C27 39.6311 27.1034 40.4327 27.2298 40.9553C27.356 41.4778 27.8004 42.568 28.2169 43.3782C28.7144 44.3452 29.6975 45.5701 31.08 46.9453C32.2382 48.0971 33.5642 49.3013 34.0269 49.6212C34.4896 49.9412 35.0152 50.3442 35.1953 50.5169C35.375 50.6896 36.0475 51.0941 36.6893 51.4155C37.3313 51.7371 38.0057 52 38.1879 52C38.3701 52 39.2118 51.5589 40.0585 51.0198C40.9053 50.4806 41.652 49.9675 41.7181 49.8801C41.7842 49.7925 42.2169 49.46 42.6795 49.141C43.1422 48.8222 44.0736 48.0163 44.7492 47.3498C45.4248 46.6836 46.5093 45.3461 47.159 44.3782C47.8086 43.4101 48.491 42.1904 48.6753 41.6678C48.8597 41.1453 49.0058 40.0553 48.9998 39.2456C48.9941 38.4361 48.8417 37.2804 48.6616 36.6773C48.4814 36.0742 48.006 35.227 47.6048 34.7945C47.2039 34.3617 46.4994 33.781 46.0397 33.504C45.3835 33.1088 44.8146 33 43.4006 33C41.9921 33 41.4167 33.1093 40.7695 33.4993C40.3138 33.7738 39.6353 34.3218 39.2615 34.717C38.888 35.1123 38.4765 35.6089 38.3475 35.8203C38.1376 36.1645 38.0687 36.1521 37.6923 35.7035C37.461 35.4277 37.0553 34.9329 36.7909 34.6042C36.5266 34.2755 35.9317 33.78 35.469 33.5033C34.8105 33.1093 34.2363 33 32.8252 33C31.4369 33 30.8386 33.1109 30.2226 33.4822Z" fill="white"/>
<path d="M68.6558 50V22.6294H71.1851H73.7144V45.2847H82.0972V47.6333V50H68.6558ZM94.1294 50.6865C91.1063 50.6865 88.5288 49.6266 86.397 47.5068C84.2772 45.375 83.2173 42.7915 83.2173 39.7563C83.2173 36.7212 84.2772 34.1377 86.397 32.0059C88.5288 29.862 91.1063 28.79 94.1294 28.79C97.1646 28.79 99.742 29.862 101.862 32.0059C103.994 34.1377 105.06 36.7212 105.06 39.7563C105.06 42.7915 103.994 45.375 101.862 47.5068C99.742 49.6266 97.1646 50.6865 94.1294 50.6865ZM94.1294 46.188C95.8276 46.188 97.2489 45.5737 98.3931 44.3452C99.5373 43.1167 100.109 41.5871 100.109 39.7563C100.109 37.9256 99.5373 36.39 98.3931 35.1494C97.2489 33.9089 95.8276 33.2886 94.1294 33.2886C92.4432 33.2886 91.028 33.9089 89.8838 35.1494C88.7396 36.39 88.1675 37.9256 88.1675 39.7563C88.1675 41.5871 88.7396 43.1167 89.8838 44.3452C91.028 45.5737 92.4432 46.188 94.1294 46.188ZM106.107 29.4766H108.709H111.329L116.351 43.6406L121.355 29.4766H123.957H126.577L118.284 50H116.333H114.382L106.107 29.4766ZM128.998 50V22.6294H143.722V24.978V27.3447H134.056V34.0835H143.27V36.4321V38.7988H134.056V45.2847H143.722V47.6333V50H128.998ZM148.003 50V29.4766H150.298H152.592V31.2471C154.182 29.609 156.085 28.79 158.301 28.79C160.734 28.79 162.661 29.6151 164.083 31.2651C165.516 32.9032 166.232 35.1193 166.232 37.9136V50H163.775H161.3V39.0156C161.3 37.1367 160.951 35.7095 160.252 34.7339C159.554 33.7583 158.536 33.2705 157.199 33.2705C155.778 33.2705 154.712 33.7643 154.001 34.752C153.291 35.7396 152.936 37.221 152.936 39.1963V50H150.479H148.003ZM180.198 53.8662C182.137 53.8662 183.715 53.2098 184.931 51.897C185.991 50.7528 186.587 49.3014 186.72 47.543C184.696 49.6387 182.299 50.6865 179.529 50.6865C176.735 50.6865 174.35 49.6266 172.375 47.5068C170.4 45.375 169.412 42.7915 169.412 39.7563C169.412 36.7212 170.4 34.1377 172.375 32.0059C174.35 29.862 176.741 28.79 179.547 28.79C182.281 28.778 184.6 29.7716 186.503 31.771V29.4766H191.272V46.1519C191.272 49.8374 190.243 52.7943 188.183 55.0225C186.136 57.2507 183.414 58.3647 180.017 58.3647C177.56 58.3647 175.404 57.7445 173.549 56.5039C171.707 55.2754 170.472 53.6313 169.846 51.5718H175.573C175.922 52.2703 176.512 52.8244 177.343 53.2339C178.186 53.6554 179.138 53.8662 180.198 53.8662ZM180.342 33.2524C178.644 33.2524 177.223 33.8787 176.079 35.1313C174.934 36.3719 174.362 37.9136 174.362 39.7563C174.362 41.5871 174.934 43.1227 176.079 44.3633C177.223 45.6038 178.638 46.2241 180.324 46.2241C182.022 46.2241 183.444 45.6038 184.588 44.3633C185.744 43.1227 186.322 41.5811 186.322 39.7383C186.322 37.8955 185.75 36.3538 184.606 35.1133C183.462 33.8727 182.041 33.2524 180.342 33.2524Z" fill="#1A222B"/>
</svg>
